<svg width="533" height="533" viewBox="0 0 533 533" fill="none" xmlns="http://www.w3.org/2000/svg">
<circle cx="266.449" cy="266.449" r="256" fill="white" stroke="#50577A" stroke-width="20.898"/>
<path d="M433.867 421.791L412.36 357.268C430.948 329.776 437.672 297.22 431.283 265.651C424.893 234.083 405.824 205.652 377.621 185.643C349.418 165.635 314 155.411 277.953 156.872C241.906 158.334 207.683 171.381 181.646 193.589C155.609 215.797 139.531 245.653 136.401 277.608C133.271 309.562 143.302 341.439 164.629 367.313C185.956 393.186 217.127 411.295 252.347 418.273C287.568 425.25 324.44 420.621 356.109 405.247L433.867 421.791Z" fill="#404258"/>
<path d="M89.0846 378.343C88.4921 380.12 88.8969 382.079 90.1456 383.476C91.3942 384.874 93.2955 385.495 95.1283 385.105L171.147 368.931C203.491 384.187 240.865 388.676 276.576 381.602C312.89 374.408 345.16 355.713 367.311 328.84C389.477 301.948 399.979 268.705 396.707 235.302C393.436 201.908 376.644 170.84 349.653 147.818C322.675 124.808 287.315 111.362 250.167 109.856C213.019 108.35 176.453 118.879 147.265 139.586C118.065 160.302 98.1788 189.847 91.5049 222.819C84.9952 254.979 91.5288 288.081 109.787 316.235L89.0846 378.343Z" fill="#50577A" stroke="white" stroke-width="10.449" stroke-linecap="round" stroke-linejoin="round"/>
</svg>
